<?xml version="1.0" encoding="utf-8"?>
<!-- Generator: Adobe Illustrator 23.1.0, SVG Export Plug-In . SVG Version: 6.00 Build 0)  -->
<svg version="1.1" id="图层_1" xmlns="http://www.w3.org/2000/svg" xmlns:xlink="http://www.w3.org/1999/xlink" x="0px" y="0px"
	 viewBox="0 0 200 200" style="enable-background:new 0 0 200 200;" xml:space="preserve">
<style type="text/css">
	.st0{fill:#7F7F7F;}
</style>
<path class="st0" d="M169.4,55.4l-30.6-22.8c-2.7-2-3.4-5.8-1.5-8.8l0,0c2-3.1,6.2-3.8,9.2-1.6l38.7,28.2l2,1.3l0,0l0,0l-26.4,42.9
	c-1.9,3.1-6,4.1-9.1,2l0,0c-2.8-1.9-3.7-5.7-1.9-8.7L169.4,55.4z"/>
<path class="st0" d="M18.8,84.8c3.4,0,6.2,2.8,6.2,6.2v77.7c0,3.4,2.8,6.2,6.2,6.2h137.4c3.4,0,6.2-2.8,6.2-6.2v-34.6
	c0-3.4,2.8-6.2,6.2-6.2l0,0l0,0c3.4,0,6.2,2.8,6.2,6.2v34.6c0,10.3-8.4,18.7-18.7,18.7H31.3c-10.3,0-18.7-8.4-18.7-18.7V91
	C12.6,87.5,15.4,84.8,18.8,84.8L18.8,84.8L18.8,84.8z"/>
<path class="st0" d="M98.2,27.5c0,3.4-2.8,6.2-6.2,6.2H31.3c-3.4,0-6.2,2.8-6.2,6.2v128.9c0,3.4,2.8,6.2,6.2,6.2H109
	c3.4,0,6.2,2.8,6.2,6.2l0,0l0,0c0,3.4-2.8,6.2-6.2,6.2H31.3c-10.3,0-18.7-8.4-18.7-18.7V40c0-10.3,8.4-18.7,18.7-18.7H92
	C95.5,21.3,98.2,24.1,98.2,27.5L98.2,27.5L98.2,27.5z"/>
<g>
	<path class="st0" d="M50,156.2L50,156.2c-4.5,0-7.7-4.3-6.4-8.6c3-9.8,9.5-26.7,22.6-42.8c17.4-21.6,44.4-48.3,102-55
		c3.8-0.4,7.2,2.3,7.5,6.1l0.1,0.6c0.3,3.6-2.3,6.8-5.9,7.2c-39.3,4.5-73.4,25.9-92.7,49.8c-12.6,15.7-18.4,30.7-20.7,38
		C55.6,154.3,53,156.2,50,156.2z"/>
</g>
</svg>
