<?xml version="1.0" encoding="utf-8"?>
<svg version="1.1" xmlns:xlink="http://www.w3.org/1999/xlink" width="39px" height="25px" xmlns="http://www.w3.org/2000/svg">
  <g transform="matrix(1 0 0 1 -549 -473 )">
    <path d="M 28.9561941964286 19.5855034722222  C 31.865234375 17.8276909722222  34.2845982142857 15.4658564814815  36.2142857142857 12.5  C 34.0089285714286 9.08564814814815  31.2449776785714 6.53211805555556  27.9224330357143 4.83940972222222  C 28.8074776785714 6.34403935185185  29.25 7.97164351851852  29.25 9.72222222222222  C 29.25 12.3987268518518  28.2960379464286 14.6882233796296  26.3881138392857 16.5907118055556  C 24.4801897321429 18.4932002314815  22.1841517857143 19.4444444444444  19.5 19.4444444444444  C 16.8158482142857 19.4444444444444  14.5198102678571 18.4932002314815  12.6118861607143 16.5907118055556  C 10.7039620535714 14.6882233796296  9.75 12.3987268518518  9.75 9.72222222222222  C 9.75 7.97164351851852  10.1925223214286 6.34403935185185  11.0775669642857 4.83940972222222  C 7.75502232142857 6.53211805555556  4.99107142857143 9.08564814814815  2.78571428571429 12.5  C 4.71540178571429 15.4658564814815  7.134765625 17.8276909722222  10.0438058035714 19.5855034722222  C 12.9528459821429 21.3433159722222  16.1049107142857 22.2222222222222  19.5 22.2222222222222  C 22.8950892857143 22.2222222222222  26.0471540178571 21.3433159722222  28.9561941964286 19.5855034722222  Z M 20.2399553571429 4.90451388888889  C 20.4430803571429 4.70196759259259  20.5446428571429 4.45601851851852  20.5446428571429 4.16666666666667  C 20.5446428571429 3.87731481481481  20.4430803571429 3.63136574074074  20.2399553571429 3.42881944444444  C 20.0368303571429 3.22627314814815  19.7901785714286 3.125  19.5 3.125  C 17.6863839285714 3.125  16.1303013392857 3.77242476851852  14.8317522321429 5.06727430555556  C 13.533203125 6.36212384259259  12.8839285714286 7.91377314814815  12.8839285714286 9.72222222222222  C 12.8839285714286 10.0115740740741  12.9854910714286 10.2575231481481  13.1886160714286 10.4600694444444  C 13.3917410714286 10.6626157407407  13.6383928571429 10.7638888888889  13.9285714285714 10.7638888888889  C 14.21875 10.7638888888889  14.4654017857143 10.6626157407407  14.6685267857143 10.4600694444444  C 14.8716517857143 10.2575231481481  14.9732142857143 10.0115740740741  14.9732142857143 9.72222222222222  C 14.9732142857143 8.47800925925926  15.4157366071429 7.4146412037037  16.30078125 6.53211805555556  C 17.1858258928571 5.64959490740741  18.2522321428571 5.20833333333333  19.5 5.20833333333333  C 19.7901785714286 5.20833333333333  20.0368303571429 5.10706018518518  20.2399553571429 4.90451388888889  Z M 38.5647321428571 11.0026041666667  C 38.8549107142857 11.5089699074074  39 12.0081018518518  39 12.5  C 39 12.9918981481481  38.8549107142857 13.4910300925926  38.5647321428571 13.9973958333333  C 36.5334821428572 17.3249421296296  33.8021763392857 19.9905960648148  30.3708147321429 21.9943576388889  C 26.939453125 23.998119212963  23.3158482142857 25  19.5 25  C 15.6841517857143 25  12.060546875 23.9945023148148  8.62918526785714 21.9835069444444  C 5.19782366071429 19.9725115740741  2.46651785714286 17.310474537037  0.435267857142857 13.9973958333333  C 0.145089285714286 13.4910300925926  0 12.9918981481481  0 12.5  C 0 12.0081018518518  0.145089285714286 11.5089699074074  0.435267857142857 11.0026041666667  C 2.46651785714286 7.68952546296296  5.19782366071429 5.02748842592592  8.62918526785714 3.01649305555556  C 12.060546875 1.00549768518518  15.6841517857143 0  19.5 0  C 23.3158482142857 0  26.939453125 1.00549768518518  30.3708147321429 3.01649305555556  C 33.8021763392857 5.02748842592592  36.5334821428572 7.68952546296296  38.5647321428571 11.0026041666667  Z " fill-rule="nonzero" fill="#4d555d" stroke="none" transform="matrix(1 0 0 1 549 473 )" />
  </g>
</svg>