<?xml version="1.0" encoding="utf-8"?>
<svg version="1.1" xmlns:xlink="http://www.w3.org/1999/xlink" width="39px" height="30px" xmlns="http://www.w3.org/2000/svg">
  <g transform="matrix(1 0 0 1 -611 -470 )">
    <path d="M 2.7857142857142856 15  C 5.208705357142857 18.839285714285715  8.306361607142858 21.629464285714285  12.078683035714286 23.370535714285715  L 13.776227678571429 20.223214285714285  C 12.513950892857142 19.285714285714285  11.52734375 18.102678571428573  10.81640625 16.674107142857142  C 10.105468750000002 15.245535714285715  9.75 13.735119047619046  9.75 12.142857142857142  C 9.75 10.342261904761905  10.192522321428573 8.66815476190476  11.077566964285714 7.1205357142857135  C 7.755022321428573 8.861607142857142  4.991071428571429 11.488095238095237  2.7857142857142856 15  Z M 20.239955357142858 7.187500000000001  C 20.443080357142858 6.979166666666662  20.544642857142858 6.726190476190475  20.544642857142858 6.428571428571429  C 20.544642857142858 6.13095238095238  20.443080357142858 5.87797619047619  20.239955357142858 5.669642857142857  C 20.03683035714286 5.461309523809521  19.79017857142857 5.357142857142858  19.5 5.357142857142858  C 17.68638392857143 5.357142857142858  16.130301339285715 6.023065476190475  14.831752232142858 7.3549107142857135  C 13.533203125000002 8.686755952380953  12.883928571428571 10.282738095238095  12.883928571428571 12.142857142857142  C 12.883928571428571 12.44047619047619  12.985491071428575 12.69345238095238  13.188616071428571 12.901785714285715  C 13.391741071428573 13.110119047619044  13.638392857142858 13.214285714285714  13.928571428571429 13.214285714285714  C 14.218750000000002 13.214285714285714  14.465401785714288 13.110119047619044  14.668526785714286 12.901785714285715  C 14.871651785714286 12.69345238095238  14.973214285714286 12.44047619047619  14.973214285714286 12.142857142857142  C 14.973214285714286 10.863095238095235  15.415736607142858 9.769345238095239  16.30078125 8.861607142857142  C 17.185825892857146 7.953869047619044  18.252232142857146 7.4999999999999964  19.5 7.5  C 19.79017857142857 7.4999999999999964  20.03683035714286 7.39583333333333  20.239955357142858 7.187500000000001  Z M 28.096540178571427 1.562500000000001  C 28.32868303571429 1.711309523809521  28.444754464285715 1.9122023809523792  28.444754464285715 2.165178571428572  C 28.444754464285715 2.269345238095235  28.437500000000004 2.336309523809519  28.422991071428573 2.36607142857143  C 26.88504464285715 5.178571428571431  24.592633928571427 9.39732142857143  21.545758928571427 15.02232142857143  C 18.49888392857143 20.64732142857143  16.21372767857143 24.858630952380956  14.690290178571429 27.65625  L 13.623883928571429 29.642857142857146  C 13.478794642857144 29.88095238095238  13.275669642857142 30  13.014508928571429 30  C 12.840401785714286 30  11.868303571428573 29.479166666666668  10.098214285714286 28.4375  C 9.86607142857143 28.288690476190474  9.75 28.080357142857142  9.75 27.8125  C 9.75 27.63392857142857  10.069196428571429 26.986607142857142  10.707589285714286 25.870535714285715  C 8.6328125 24.90327380952381  6.721261160714287 23.616071428571427  4.972935267857143 22.00892857142857  C 3.224609375 20.401785714285715  1.7120535714285718 18.578869047619047  0.43526785714285715 16.54017857142857  C 0.1450892857142857 16.078869047619044  0 15.565476190476188  0 15  C 0 14.434523809523808  0.1450892857142857 13.92113095238095  0.43526785714285715 13.459821428571429  C 2.655133928571429 9.962797619047619  5.411830357142858 7.20238095238095  8.705357142857144 5.178571428571431  C 11.99888392857143 3.1547619047619033  15.597098214285717 2.142857142857142  19.5 2.142857142857142  C 20.791294642857142 2.142857142857142  22.097098214285715 2.269345238095235  23.417410714285715 2.522321428571428  L 24.592633928571427 0.3571428571428559  C 24.737723214285715 0.11904761904761862  24.940848214285715 0  25.202008928571427 0  C 25.274553571428577 0  25.405133928571434 0.044642857142856984  25.59375 0.13392857142857095  C 25.782366071428573 0.22321428571428492  26.007254464285715 0.33854166666666297  26.268415178571427 0.4799107142857151  C 26.529575892857142 0.6212797619047605  26.768973214285715 0.7589285714285721  26.986607142857142 0.892857142857143  C 27.204241071428573 1.026785714285714  27.432756696428573 1.1644345238095188  27.672154017857142 1.305803571428571  C 27.911551339285715 1.4471726190476164  28.053013392857142 1.5327380952380931  28.096540178571427 1.562500000000001  Z M 29.075892857142858 10.267857142857142  C 29.191964285714292 10.937500000000002  29.25 11.562499999999998  29.25 12.142857142857142  C 29.25 14.211309523809524  28.676897321428573 16.097470238095234  27.530691964285715 17.801339285714285  C 26.384486607142858 19.505208333333332  24.868303571428573 20.729166666666664  22.982142857142858 21.473214285714285  L 29.075892857142858 10.267857142857142  Z M 38.56473214285714 13.459821428571429  C 38.854910714285715 13.965773809523808  39 14.479166666666664  39 15  C 39 15.520833333333332  38.854910714285715 16.03422619047619  38.56473214285714 16.54017857142857  C 37.99888392857142 17.49255952380952  37.20814732142857 18.571428571428573  36.19252232142858 19.776785714285715  C 34.016183035714285 22.33630952380953  31.495256696428573 24.322916666666668  28.629743303571427 25.736607142857142  C 25.764229910714292 27.150297619047617  22.720982142857142 27.857142857142858  19.5 27.857142857142858  L 21.110491071428573 24.910714285714285  C 24.186383928571434 24.642857142857142  27.03376116071429 23.6235119047619  29.652622767857142 21.852678571428573  C 32.271484375 20.081845238095234  34.45870535714286 17.797619047619044  36.214285714285715 15  C 34.54575892857143 12.336309523809524  32.5 10.148809523809524  30.077008928571427 8.4375  L 31.448102678571427 5.937499999999999  C 32.826450892857146 6.889880952380948  34.150390625 8.028273809523807  35.419921875 9.35267857142857  C 36.689453125 10.67708333333333  37.737723214285715 12.04613095238095  38.56473214285714 13.459821428571429  Z " fill-rule="nonzero" fill="#4d555d" stroke="none" transform="matrix(1 0 0 1 611 470 )" />
  </g>
</svg>