<?xml version="1.0" encoding="utf-8"?>
<svg version="1.1" xmlns:xlink="http://www.w3.org/1999/xlink" width="32px" height="28px" xmlns="http://www.w3.org/2000/svg">
  <g transform="matrix(1 0 0 1 -147 -70 )">
    <path d="M 31.784354838709675 27.189432565789467  C 32.137258064516125 26.660649671052624  32.00306451612903 25.940378289473678  31.48463709677419 25.580263157894734  L 25.262096774193548 21.260526315789477  C 26.515564516129036 19.16167763157895  27.237701612903226 16.696628289473683  27.237701612903226 14.059498355263159  C 27.237701612903226 6.402425986842104  21.15060483870968 0.19514802631579037  13.641733870967743 0.19514802631579037  C 6.132862903225808 0.19514802631579037  0.04576612903225807 6.402467105263159  0.04576612903225807 14.059539473684211  C 0.04576612903225807 21.716529605263162  6.132903225806452 27.923807565789474  13.641774193548386 27.923807565789474  C 17.748306451612905 27.923807565789474  21.429637096774194 26.067269736842107  23.92258064516129 23.132401315789465  L 30.206572580645158 27.494942434210518  C 30.39454121428171 27.625929735987302  30.61693006974603 27.6959567752027  30.844596774193544 27.69584703947368  C 31.20774193548387 27.69584703947368  31.56451612903226 27.518544407894733  31.784354838709675 27.189432565789467  Z M 21.649596774193547 22.22532894736843  C 20.608790322580646 23.286718750000002  19.397419354838707 24.119736842105265  18.049193548387098 24.701192434210526  C 16.65447580645161 25.302713815789478  15.171612903225807 25.6077302631579  13.64177419354839 25.6077302631579  C 12.111935483870973 25.6077302631579  10.62903225806452 25.302713815789478  9.234314516129034 24.701192434210526  C 7.886048387096775 24.119695723684213  6.674717741935485 23.286718750000002  5.633911290322581 22.22532894736843  C 4.593145161290324 21.16402138157895  3.7763306451612917 19.928782894736848  3.205967741935485 18.553865131578952  C 2.6160483870967752 17.131620065789477  2.3169758064516137 15.619325657894741  2.3169758064516137 14.059498355263162  C 2.3169758064516137 12.499424342105266  2.6160483870967752 10.987335526315794  3.205967741935485 9.565090460526324  C 3.7763306451612917 8.190172697368428  4.593145161290324 6.954893092105269  5.633911290322581 5.893626644736848  C 6.67475806451613 4.832236842105269  7.886088709677419 3.9993009868421114  9.234314516129034 3.4177220394736896  C 10.62903225806452 2.8161595394736896  12.11193548387097 2.511101973684215  13.64177419354839 2.511101973684215  C 15.171612903225812 2.511101973684215  16.654475806451615 2.8161595394736896  18.049193548387098 3.4177220394736896  C 19.397459677419356 3.9993009868421114  20.608830645161294 4.832195723684215  21.649637096774196 5.893626644736848  C 22.690362903225807 6.954893092105269  23.50725806451613 8.190172697368427  24.077540322580646 9.565090460526324  C 24.667459677419355 10.987335526315794  24.96653225806452 12.499383223684218  24.96653225806452 14.059498355263162  C 24.96653225806452 15.619325657894741  24.667459677419355 17.131620065789477  24.077540322580646 18.553865131578952  C 23.78541305446958 19.25852702737307  23.4250663799246 19.931707875833638  23.001854838709686 20.563404605263166  C 22.879339090595966 20.646233832324015  22.77381329875724 20.752599390189538  22.691169354838713 20.876562500000002  C 22.62384120715221 20.977361716047294  22.572563134039857 21.088381122299594  22.539233870967742 21.205509868421053  C 22.262440113444907 21.562846178592668  21.96538715738281 21.903367356439567  21.649596774193547 22.22532894736843  Z " fill-rule="nonzero" fill="#999999" stroke="none" transform="matrix(1 0 0 1 147 70 )" />
  </g>
</svg>