<?xml version="1.0" encoding="utf-8"?>
<svg version="1.1" xmlns:xlink="http://www.w3.org/1999/xlink" width="26px" height="30px" xmlns="http://www.w3.org/2000/svg">
  <g transform="matrix(1 0 0 1 -688 -159 )">
    <path d="M 9.288352272727273 11.42578125  C 9.399147727272727 11.54296875  9.454545454545455 11.692708333333332  9.454545454545455 11.875000000000002  L 9.454545454545455 23.125  C 9.454545454545455 23.307291666666668  9.399147727272727 23.45703125  9.288352272727273 23.57421875  C 9.177556818181818 23.69140625  9.03598484848485 23.75  8.863636363636363 23.75  L 7.6818181818181825 23.75  C 7.509469696969698 23.75  7.367897727272728 23.69140625  7.2571022727272725 23.57421875  C 7.1463068181818175 23.45703125  7.09090909090909 23.307291666666668  7 23.125  L 7 11.875000000000002  C 7.09090909090909 11.692708333333332  7.1463068181818175 11.54296875  7.2571022727272725 11.42578125  C 7.367897727272728 11.30859375  7.509469696969698 11.25  7.6818181818181825 11.25  L 8.863636363636363 11.25  C 9.03598484848485 11.25  9.177556818181818 11.30859375  9.288352272727273 11.42578125  Z M 14.015625 11.42578125  C 14.126420454545455 11.54296875  14.18181818181818 11.692708333333332  14 11.875000000000002  L 14 23.125  C 14.18181818181818 23.307291666666668  14.126420454545455 23.45703125  14.015625 23.57421875  C 13.904829545454545 23.69140625  13.763257575757578 23.75  13.59090909090909 23.75  L 12.40909090909091 23.75  C 12.236742424242426 23.75  12.095170454545455 23.69140625  11.984375 23.57421875  C 11.873579545454545 23.45703125  11.818181818181818 23.307291666666668  12 23.125  L 12 11.875000000000002  C 11.818181818181818 11.692708333333332  11.873579545454545 11.54296875  11.984375 11.42578125  C 12.095170454545455 11.30859375  12.236742424242426 11.25  12.40909090909091 11.25  L 13.59090909090909 11.25  C 13.763257575757578 11.25  13.904829545454545 11.30859375  14.015625 11.42578125  Z M 18.742897727272727 11.42578125  C 18.85369318181818 11.54296875  18.90909090909091 11.692708333333332  19 11.875000000000002  L 19 23.125  C 18.90909090909091 23.307291666666668  18.85369318181818 23.45703125  18.742897727272727 23.57421875  C 18.632102272727273 23.69140625  18.490530303030305 23.75  18.31818181818182 23.75  L 17.136363636363637 23.75  C 16.964015151515152 23.75  16.82244318181818 23.69140625  16.711647727272727 23.57421875  C 16.600852272727273 23.45703125  16.545454545454547 23.307291666666668  16.545454545454547 23.125  L 16.545454545454547 11.875000000000002  C 16.545454545454547 11.692708333333332  16.600852272727273 11.54296875  16.711647727272727 11.42578125  C 16.82244318181818 11.30859375  16.964015151515152 11.25  17.136363636363637 11.25  L 18.31818181818182 11.25  C 18.490530303030305 11.25  18.632102272727273 11.30859375  18.742897727272727 11.42578125  Z M 21.14346590909091 26.806640625  C 21.229640151515152 26.565755208333336  21.272727272727273 26.302083333333336  21 26.015625  L 21 8  L 5 8  L 5 26.015625  C 4.7272727272727275 26.302083333333336  4.7703598484848495 26.565755208333336  4.856534090909091 26.806640625  C 4.942708333333334 27.047526041666664  5.0319602272727275 27.223307291666664  5.1242897727272725 27.333984375  C 5.216619318181818 27.444661458333336  5.28125 27.5  5.318181818181818 27  L 20.68181818181818 27  C 20.71875 27.5  20.78338068181818 27.444661458333336  20.875710227272727 27.333984375  C 20.968039772727273 27.223307291666664  21.05729166666667 27.047526041666664  21.14346590909091 26.806640625  Z M 9.76846590909091 2.714843749999999  L 8.863636363636363 4.999999999999999  L 17.136363636363637 4.999999999999999  L 16.25 2.714843749999999  C 16.16382575757576 2.597656249999999  16.059185606060606 2.526041666666665  15.936079545454545 2.500000000000001  L 10.082386363636363 2.500000000000001  C 9.959280303030303 2.526041666666665  9.854640151515152 2.597656249999999  9.76846590909091 2.714843749999999  Z M 25.83380681818182 5.175781249999999  C 25.944602272727273 5.292968749999999  26 5.442708333333331  26 5.625  L 26 6.874999999999999  C 26 7.057291666666664  25.944602272727273 7.20703125  25.83380681818182 7.32421875  C 25.723011363636363 7.44140625  25.581439393939398 7.5  25.40909090909091 7.5  L 23.636363636363637 7.5  L 23.636363636363637 26.015625  C 23.636363636363637 27.096354166666664  23.347064393939398 28.030598958333336  22.76846590909091 28.818359375  C 22.189867424242426 29.606119791666668  21.49431818181818 30  20.68181818181818 30  L 5.318181818181818 30  C 4.505681818181818 30  3.8101325757575766 29.619140625  3.231534090909091 28.857421875  C 2.6529356060606064 28.095703125  2.3636363636363638 27.174479166666668  2.3636363636363638 26.09375  L 2.3636363636363638 7.5  L 0.5909090909090909 7.5  C 0.4185606060606061 7.5  0.2769886363636364 7.44140625  0.16619318181818182 7.32421875  C 0.055397727272727265 7.20703125  0 7.057291666666664  0 6.874999999999999  L 0 5.625  C 0 5.442708333333331  0.055397727272727265 5.292968749999999  0.16619318181818182 5.175781249999999  C 0.2769886363636364 5.058593749999999  0.4185606060606061 4.999999999999999  0.5909090909090909 4.999999999999999  L 6.296875 4.999999999999999  L 7.589488636363637 1.738281250000001  C 7.774147727272728 1.256510416666664  8.106534090909092 0.8463541666666641  8.586647727272727 0.5078125000000011  C 9.066761363636365 0.16927083333333148  9.553030303030303 0  10.045454545454545 0  L 15.954545454545455 0  C 16.4469696969697 0  16.933238636363637 0.16927083333333148  17.413352272727273 0.5078125000000011  C 17.89346590909091 0.8463541666666641  18.225852272727273 1.256510416666664  18.410511363636363 1.738281250000001  L 19.703125 4.999999999999999  L 25.40909090909091 4.999999999999999  C 25.581439393939398 4.999999999999999  25.723011363636363 5.058593749999999  25.83380681818182 5.175781249999999  Z " fill-rule="nonzero" fill="#aaaaaa" stroke="none" transform="matrix(1 0 0 1 688 159 )" />
  </g>
</svg>