<?xml version="1.0" encoding="utf-8"?>
<svg version="1.1" xmlns:xlink="http://www.w3.org/1999/xlink" width="16px" height="6px" xmlns="http://www.w3.org/2000/svg">
  <g transform="matrix(1 0 0 1 -153 -75 )">
    <path d="M 15.799107142857142 4.349109375000001  C 15.626542207792209 4.673250000000003  15.326461038961043 4.851796875  15.019521103896107 4.851796875  C 14.850547484076818 4.8518465913621025  14.684901547361083 4.7975358883494845  14.541152597402599 4.694953125000001  C 14.23492006036392 4.4773837376285845  13.915176373004433 4.286268821389784  13.584537337662336 4.123171875000002  C 13.120008116883115 3.8942343750000017  12.904180194805193 3.2738437500000037  13.102353896103898 2.737406250000003  C 13.300568181818184 2.2008750000000017  13.837743506493508 1.9515468750000031  14.302150974025974 2.180484375000002  C 14.716033548044255 2.3846130736936546  15.116273642256903 2.623828459255316  15.499594155844155 2.8961718750000034  C 15.929707792207788 3.201890625000002  16.063717532467532 3.8524218750000014  15.799107142857142 4.349109375000001  Z M 1.777516233766232 5.574562500000001  C 1.597280844155843 5.844187499999999  1.326582792207791 5.985515625  1.0529626623376638 5.985515625  C 0.857832792207794 5.985515625  0.6613636363636373 5.913796875000003  0.4949675324675319 5.765484374999999  C 0.09512987012987072 5.409093749999998  0.021144480519479928 4.745953124999999  0.32974837662337514 4.284140625  C 1.6981331168831157 2.236171875  3.666193181818179 0.8516249999999996  5.871266233766232 0.38573437500000074  C 7.625811688311688 0.015093750000000341  9.417126623376621 0.2446875000000017  11.051339285714286 1.050281250000001  C 11.515868506493506 1.27921875  11.731696428571428 1.8996562499999992  11.533522727272727 2.43609375  C 11.33530844155844 2.972578125  10.798133116883113 3.2219531249999998  10.333685064935064 2.99296875  C 9.030357142857142 2.3506406250000005  7.6010957792207785 2.16759375  6.200324675324675 2.463328125000001  C 4.440381493506493 2.8353750000000013  2.8695616883116877 3.9402187500000014  1.777516233766232 5.574562500000001  Z " fill-rule="nonzero" fill="#999999" stroke="none" transform="matrix(1 0 0 1 153 75 )" />
  </g>
</svg>